<?xml version="1.0" encoding="utf-8"?>
<!-- Generator: Adobe Illustrator 26.0.1, SVG Export Plug-In . SVG Version: 6.00 Build 0)  -->
<svg version="1.1" id="Layer_1" xmlns="http://www.w3.org/2000/svg" xmlns:xlink="http://www.w3.org/1999/xlink" x="0px" y="0px"
	 viewBox="0 0 64 64" style="enable-background:new 0 0 64 64;" xml:space="preserve">
<style type="text/css">
	.st0{fill:url(#SVGID_1_);}
	.st1{fill:url(#SVGID_00000129200561398923508170000017788244718651163791_);}
	.st2{fill:url(#SVGID_00000098937338568956861810000001929934783669523131_);}
	.st3{fill:url(#SVGID_00000108994650006040646280000011191345760156269755_);}
	.st4{fill:url(#SVGID_00000011736270514629100300000001112924236546637495_);}
	.st5{fill:url(#SVGID_00000149374142937630901510000016692527012764264111_);}
</style>
<linearGradient id="SVGID_1_" gradientUnits="userSpaceOnUse" x1="2.3343" y1="41.4768" x2="38.6643" y2="61.2968" gradientTransform="matrix(1 0 0 -1 0 66)">
	<stop  offset="0" style="stop-color:#FA0048"/>
	<stop  offset="1" style="stop-color:#293993"/>
</linearGradient>
<path class="st0" d="M32,9.7v2.6c0,0.2,0,0.3,0,0.5c0,0.3,0.3,0.5,0.6,0.5l0,0c0.3,0,0.6-0.2,0.6-0.5c0-0.1,0-0.3,0-0.4V9.8
	c0-2,0-4,0-6c0-0.4-0.1-0.8-0.4-1h-0.5C32,3,31.9,3.4,32,3.8C32,5.8,32,7.8,32,9.7z"/>
<linearGradient id="SVGID_00000088120965363792697620000005352618444609339833_" gradientUnits="userSpaceOnUse" x1="18.5152" y1="11.8034" x2="54.8452" y2="31.6234" gradientTransform="matrix(1 0 0 -1 0 66)">
	<stop  offset="0" style="stop-color:#FA0048"/>
	<stop  offset="1" style="stop-color:#293993"/>
</linearGradient>
<path style="fill:url(#SVGID_00000088120965363792697620000005352618444609339833_);" d="M57.4,47.8c-0.9-1.2-2.2-1.9-3.7-1.9
	c-0.7,0-1.3,0.2-1.9,0.4c-1.8,0.8-3.7,1.7-5.4,2.5L44,50l-0.3,0.1l-0.1-0.2c-1.1-2-3.3-3.3-5.7-3.1h-0.4c-0.7,0-1.5,0-2.2-0.1
	s-1.5-0.1-2.2-0.1h-0.3c-2,0-4-0.5-5.8-1.4c-1.6-0.8-3.4-1.3-5.2-1.3c-1.2,0-2.3,0.2-3.4,0.5c-0.6,0.2-1.1,0.4-1.7,0.6L16,45.2
	l-0.4,0.2V45c0-0.1,0-0.2,0-0.4c0-0.3,0-0.5,0-0.8c0-0.3,0-0.6-0.2-0.8c-0.2-0.2-0.5-0.3-0.8-0.2l-7.2-0.2H7.4
	c-0.6,0-0.8,0.2-0.8,0.9s0,1,0,1.6v1.3l-0.1,4.5c-0.1,3.1-0.2,6.2-0.3,9.2c0,0.7,0.3,0.9,0.7,0.9c2.2,0.1,4.6,0.1,7.6,0.2l0,0
	c0.2,0,0.4-0.1,0.5-0.2c0.1-0.1,0.1-0.2,0.1-0.3c-0.1-0.8,0.4-1.5,1.2-1.7c0.2-0.1,0.5-0.2,0.7-0.3l0.1-0.1c0.6-0.4,1.3-0.6,2-0.6
	c0.4,0,0.8,0.1,1.2,0.2h0.1c2.3,0.7,4.8,1.4,7.2,2l1.4,0.4c1.5,0.5,3.1,0.8,4.7,1.1c0.5,0.1,1.1,0.1,1.6,0.1c2,0,3.9-0.6,5.6-1.6
	c3.9-2.5,7.9-5.1,11.7-7.6c1.6-1,3.1-2,4.7-3c0.4-0.3,0.6-0.5,0.7-0.7S57.7,48.2,57.4,47.8z M13.8,59.6H7.4L7.8,44h6.4L13.8,59.6z
	 M55.3,49l-1.2,0.8l-4,2.6c-3.3,2.2-6.8,4.4-10.2,6.6c-1.4,0.9-3,1.4-4.7,1.3l0,0c-0.6,0-1.2,0-1.8-0.1c-1.7-0.3-3.4-0.8-5.1-1.3
	l-1.8-0.5c-1.9-0.5-3.8-1-5.6-1.6c-0.6-0.2-1.2-0.3-1.8-0.3c-1,0-1.9,0.3-2.8,0.8l-0.4,0.2h-0.1c-0.1,0-0.1,0-0.2,0h-0.4v-0.3
	c0,0,0,0,0-0.1c0-0.1,0-0.2,0-0.2c0-0.9,0-1.8,0.1-2.8c0.1-2.1,0.1-4.2,0.2-6.3c0-0.4,0.2-0.8,0.6-1c3.2-1.9,7.1-2.1,10.4-0.5
	l0.5,0.2c1.2,0.7,2.5,1.1,3.9,1.3c1,0.1,2,0.1,3,0.1h1.3h1.2c0.8,0,1.7,0,2.5,0.1c2,0.2,3.6,1.7,4,3.6v0.4h-1.1L38.6,52l-6.2-0.2
	h-0.3c-0.1,0-0.2,0-0.3,0c-0.3,0.1-0.5,0.3-0.4,0.6c0,0.3,0.2,0.6,0.5,0.6c0.3,0,0.6,0.1,0.8,0.1h0.1c3.3,0.1,6.9,0.2,10.4,0.3h0.1
	c0.4,0.2,0.9-0.1,1.1-0.5c0.1-0.2,0.1-0.5-0.1-0.7c-0.2-0.6,0.2-1.2,0.8-1.3c1.5-0.7,3-1.4,4.5-2.1l2.6-1.2c0.5-0.2,1-0.4,1.6-0.4
	c0.8,0,1.6,0.4,2.2,1l0.3,0.3L55.3,49z"/>
<linearGradient id="SVGID_00000154392056168186466190000009673741573595241884_" gradientUnits="userSpaceOnUse" x1="11.3865" y1="24.8728" x2="47.7165" y2="44.6928" gradientTransform="matrix(1 0 0 -1 0 66)">
	<stop  offset="0" style="stop-color:#FA0048"/>
	<stop  offset="1" style="stop-color:#293993"/>
</linearGradient>
<path style="fill:url(#SVGID_00000154392056168186466190000009673741573595241884_);" d="M32.5,43.4L32.5,43.4
	c7.6,0,13.8-6.1,13.9-13.8c0-7.6-6.2-13.8-13.8-13.9l0,0c-7.6,0-13.8,6.1-13.9,13.8C18.7,37.2,24.9,43.4,32.5,43.4z M32.5,17.1
	L32.5,17.1c7,0,12.6,5.6,12.6,12.5c0,6.9-5.6,12.5-12.5,12.5h-0.1c-6.9,0-12.5-5.6-12.5-12.5S25.6,17.1,32.5,17.1L32.5,17.1z"/>
<linearGradient id="SVGID_00000148646093200640094100000001996434597892419261_" gradientUnits="userSpaceOnUse" x1="5.0395" y1="36.4973" x2="41.3695" y2="56.3173" gradientTransform="matrix(1 0 0 -1 0 66)">
	<stop  offset="0" style="stop-color:#FA0048"/>
	<stop  offset="1" style="stop-color:#293993"/>
</linearGradient>
<path style="fill:url(#SVGID_00000148646093200640094100000001996434597892419261_);" d="M39.9,13.3L39.9,13.3
	c0.4,0,0.6-0.3,0.6-0.7s0-1,0-1.5c0-0.2,0-0.4,0-0.7s0-0.4,0-0.6c0-0.5,0-1,0-1.5c0-0.5-0.2-0.7-0.6-0.7l0,0c-0.4,0-0.6,0.3-0.6,0.6
	c0,0,0,0.1,0,0.1c0,1.4,0,2.8,0,4.2C39.2,13.1,39.5,13.3,39.9,13.3z"/>
<linearGradient id="SVGID_00000172436186356483469390000000419181120684539274_" gradientUnits="userSpaceOnUse" x1="1.6862" y1="42.6533" x2="38.0162" y2="62.4733" gradientTransform="matrix(1 0 0 -1 0 66)">
	<stop  offset="0" style="stop-color:#FA0048"/>
	<stop  offset="1" style="stop-color:#293993"/>
</linearGradient>
<path style="fill:url(#SVGID_00000172436186356483469390000000419181120684539274_);" d="M25.2,13.3L25.2,13.3
	c0.6,0,0.6-0.5,0.6-0.8c0-0.5,0-1,0-1.4V9.9c0-0.5,0-1,0-1.5s-0.2-0.7-0.7-0.7l0,0c-0.4,0-0.6,0.3-0.6,0.8c0,1.5,0,2.9,0,4.2
	C24.6,13.1,24.8,13.3,25.2,13.3z"/>
<linearGradient id="SVGID_00000124871420951751361180000009559573937404446855_" gradientUnits="userSpaceOnUse" x1="11.3475" y1="24.9527" x2="47.6775" y2="44.7727" gradientTransform="matrix(1 0 0 -1 0 66)">
	<stop  offset="0" style="stop-color:#FA0048"/>
	<stop  offset="1" style="stop-color:#293993"/>
</linearGradient>
<path style="fill:url(#SVGID_00000124871420951751361180000009559573937404446855_);" d="M32.6,35.2c-1.3,0-2.5-1-2.5-2.3
	c0-0.2-0.1-0.8-0.7-0.8h-0.1c-0.2,0-0.3,0.1-0.4,0.2c-0.1,0.2-0.2,0.4-0.2,0.7c0.1,1.5,1,2.7,2.4,3.3c0.5,0.1,0.8,0.6,0.7,1.2
	c0,0.1,0,0.2,0,0.3l0,0c0,0.4,0.3,0.6,0.6,0.7l0,0c0.2,0,0.4,0,0.5-0.1c0.1-0.1,0.2-0.3,0.2-0.5c-0.1-0.7,0.3-1.3,1-1.5
	c1.5-0.6,2.4-2.1,2.3-3.7c-0.1-1.7-1.3-3.1-2.9-3.5c-0.3-0.1-0.5-0.1-0.8-0.1l-0.5-0.1c-1.2-0.2-2.1-1.2-2.1-2.5
	c0-1.4,1.1-2.5,2.5-2.5h0.1c1.3,0,2.4,1,2.5,2.4c0,0.5,0.3,0.8,0.7,0.8l0,0c0.2,0,0.3-0.1,0.5-0.2c0.1-0.2,0.2-0.4,0.2-0.7
	c-0.1-1.5-1.1-2.9-2.5-3.4c-0.5-0.1-0.9-0.6-0.8-1.2c0,0,0,0,0,0c0-0.1,0-0.2,0-0.3c0-0.3-0.3-0.6-0.6-0.5c-0.3,0-0.6,0.2-0.6,0.5
	c0,0.2,0,0.3,0,0.5c0.1,0.5-0.2,1-0.7,1.1c-1.4,0.5-2.3,1.8-2.3,3.3c-0.1,1.4,0.5,2.8,1.8,3.5c0.7,0.4,1.5,0.6,2.2,0.6h0.2
	c1.3,0.2,2.3,1.3,2.2,2.7C35,34.2,33.9,35.2,32.6,35.2z"/>
</svg>
